<svg version="1.1" xmlns="http://www.w3.org/2000/svg" viewBox="0 0 159 174" width="159" height="174">
  <!-- svg-source:excalidraw -->
  
  <defs>
    <style class="style-fonts">
      @font-face {
        font-family: "Virgil";
        src: url("https://excalidraw.com/Virgil.woff2");
      }
      @font-face {
        font-family: "Cascadia";
        src: url("https://excalidraw.com/Cascadia.woff2");
      }
    </style>
    
  </defs>
  <rect x="0" y="0" width="159" height="174" fill="#ffffff"></rect><g stroke-linecap="round" transform="translate(10 10) rotate(0 69.5 77)"><path d="M0 0 C0 0, 0 0, 0 0 M0 0 C0 0, 0 0, 0 0 M-1.43 22.88 C3.24 20.57, 15.13 11.67, 21.37 -2 M-1.12 22.43 C7.45 16.41, 11.23 10.89, 19.83 0.06 M-0.71 47.99 C13.8 27.24, 30.85 12.94, 42.57 -2.03 M-0.04 48.65 C13.22 35.2, 24.47 21.06, 40.99 -1.43 M-0.66 70.25 C18.17 54.07, 31.33 32.87, 65.4 -1.51 M1.06 71.6 C14.59 58.63, 25.61 41.09, 63.22 -2.12 M-2.67 96.04 C19.38 75.69, 37.3 50.09, 83.73 2.7 M1.35 96.63 C24.96 74.28, 47.13 46.68, 84.59 0.66 M2.74 121.22 C18.3 93.07, 48.8 69.71, 108.49 3.34 M-0.21 121.02 C31.63 85.42, 65.29 50.26, 104.87 0.97 M-2.9 144.5 C40.54 102.73, 77.75 55.47, 128.9 3.67 M0.62 146.25 C27.46 115.1, 54.69 86.52, 125.01 2 M15.72 153.5 C46.04 116.98, 79.52 75.59, 135.8 9.09 M13.17 156.79 C46.73 115.96, 80.37 75.5, 138.59 10.5 M33.33 153.83 C62.56 124.13, 85.44 96.05, 135.32 33.72 M33.76 156.02 C67.52 117.18, 98.87 77.34, 139.74 36.2 M53.74 155.1 C78.67 131.75, 107.62 101.51, 140.6 57.17 M57.51 153.07 C72.37 132.97, 95.8 111.31, 138.98 59.34 M78.23 151 C104.6 130.56, 125.45 102.54, 141.37 80.64 M78.94 153.68 C95.79 134.17, 114.62 111.5, 139.09 83.62 M99.5 156.42 C106.77 138.82, 122.98 123.65, 141.73 109.94 M100.1 154.19 C113.65 140.64, 128.52 121.54, 140.97 106.04 M123.58 151.64 C122.59 151.67, 127.68 143.66, 139.98 133.36 M120.66 156.46 C127.62 145.89, 133.57 137.28, 137.71 131.54" stroke="#a5d8ff" stroke-width="2" fill="none"></path><path d="M-2.69 0.43 C27.48 5.54, 60.68 1.05, 138.5 -1.23 M1.69 0.17 C44.93 1.09, 91.77 1.5, 137.53 -1.9 M142.7 3.63 C143.31 40.93, 141.78 78.26, 141.27 154.09 M138.08 -1.12 C137.13 54.38, 140.1 107.52, 140.45 152.55 M136.19 157.14 C97.8 150.38, 61.97 154.11, 0.98 154.24 M137.69 154.13 C99.06 153.3, 57.92 153.92, 0.05 155.83 M-3.91 156.05 C3.84 124.66, 4.01 94.65, -0.75 3.82 M0.88 153.44 C-1 98.19, -0.81 41.66, 0 0.22" stroke="#000000" stroke-width="4" fill="none"></path></g><g transform="translate(43.39512125305873 46.80332036813735) rotate(0 38.08333206176758 38.73380398982877)"><text x="0" y="0" font-family="Cascadia, Segoe UI Emoji" font-size="64.55633998304798px" fill="#000000" text-anchor="start" style="white-space: pre;" direction="ltr" dominant-baseline="text-before-edge">Na</text></g><g transform="translate(107.07396275180088 16.187573814593236) rotate(0 16.399999618530273 16.80000000000001)"><text x="0" y="0" font-family="Cascadia, Segoe UI Emoji" font-size="28px" fill="#000000" text-anchor="start" style="white-space: pre;" direction="ltr" dominant-baseline="text-before-edge">11</text></g><g transform="translate(31.58458768849175 112.61370933947842) rotate(0 49.20000076293945 16.80000000000001)"><text x="0" y="0" font-family="Cascadia, Segoe UI Emoji" font-size="28px" fill="#000000" text-anchor="start" style="white-space: pre;" direction="ltr" dominant-baseline="text-before-edge">22.989</text></g></svg>